<?xml version="1.0" encoding="utf-8"?>
<!-- Generator: Adobe Illustrator 21.0.2, SVG Export Plug-In . SVG Version: 6.00 Build 0)  -->
<svg version="1.1" id="圖層_1" xmlns="http://www.w3.org/2000/svg" xmlns:xlink="http://www.w3.org/1999/xlink" x="0px" y="0px"
	 viewBox="0 0 648.4 670.8" style="enable-background:new 0 0 648.4 670.8;" xml:space="preserve">
<style type="text/css">
	.st0{opacity:0.2;clip-path:url(#SVGID_2_);fill:url(#SVGID_3_);}
	.st1{opacity:0.2;clip-path:url(#SVGID_2_);fill:url(#SVGID_4_);}
</style>
<g>
	<defs>
		<rect id="SVGID_1_" width="648.4" height="670.8"/>
	</defs>
	<clipPath id="SVGID_2_">
		<use xlink:href="#SVGID_1_"  style="overflow:visible;"/>
	</clipPath>
	<linearGradient id="SVGID_3_" gradientUnits="userSpaceOnUse" x1="324.2105" y1="175.2504" x2="324.2105" y2="935.5524">
		<stop  offset="0" style="stop-color:#C3DCFF"/>
		<stop  offset="1" style="stop-color:#5C8DEC;stop-opacity:0"/>
	</linearGradient>
	<path class="st0" d="M648.3,202.3c-2-44-38.3-79.1-82.7-79.1c-17.5,0-33.8,5.5-47.2,14.8c-12.1-23.4-36.5-39.5-64.7-39.5
		c-30.9,0-57.3,19.3-67.9,46.4c-11.4-7.4-25-11.7-39.6-11.7c-16.7,0-32.2,5.7-44.5,15.2c-13.3-38.4-49.8-65.9-92.7-65.9
		c-43.9,0-81.1,28.8-93.6,68.6c-12.2-11.1-28.5-17.9-46.3-17.9c-38.1,0-69,30.9-69,69v468.5h648.4L648.3,202.3L648.3,202.3z"/>
	<linearGradient id="SVGID_4_" gradientUnits="userSpaceOnUse" x1="324.2105" y1="264.4828" x2="324.2105" y2="991.451">
		<stop  offset="0" style="stop-color:#C3DCFF"/>
		<stop  offset="1" style="stop-color:#5C8DEC;stop-opacity:0"/>
	</linearGradient>
	<path class="st1" d="M648.3,295.6c-2-44-38.3-79.1-82.7-79.1c-17.5,0-33.8,5.5-47.2,14.8c-12.1-23.4-36.5-39.5-64.7-39.5
		c-30.9,0-57.3,19.3-67.9,46.4c-11.4-7.4-25-11.7-39.6-11.7c-16.7,0-32.2,5.7-44.5,15.2c-13.3-38.4-49.8-65.9-92.7-65.9
		c-43.9,0-81.1,28.8-93.6,68.6c-12.2-11.1-28.5-17.9-46.3-17.9c-38.1,0-69,30.9-69,69v442.7h648.4L648.3,295.6L648.3,295.6z"/>
</g>
</svg>
